<?xml version="1.0" encoding="utf-8"?>
<!-- Generator: Adobe Illustrator 18.1.1, SVG Export Plug-In . SVG Version: 6.00 Build 0)  -->
<svg version="1.1" id="Layer_1" xmlns="http://www.w3.org/2000/svg" xmlns:xlink="http://www.w3.org/1999/xlink" x="0px" y="0px"
	 viewBox="0 0 255.1 122.9" enable-background="new 0 0 255.1 122.9" xml:space="preserve">
<rect y="0" fill="#3C3C3C" width="255.1" height="122.9"/>
<g id="artwork">
	<g>
		<g>
			<polygon fill="#6CBE45" points="87.2,53.3 89.9,41.1 75,41.1 75,41.1 72.3,53.3 			"/>
			<path fill="#6CBE45" d="M61.6,41.1H46.7l-5.1,22.5c-2.9,13.7,4.2,19.3,17.3,19.3c12.2,0,21.7-4.9,25.4-17.1l-29.1,2.7L61.6,41.1z
				"/>
			<path fill="#FFFFFF" d="M86.3,82.1H109c11,0,17.8-4.9,19.3-11.5l0,0c0.7-3.2-1-6.4-3.4-8.6l-34.9,3.2L86.3,82.1z"/>
			<path fill="#FFFFFF" d="M131,51.1L131,51.1c0.7-2.9,0-5.1-1.2-6.6c-2-2.4-5.6-3.7-11.7-3.7h-23L92.4,53H130
				C130.5,52.5,131,52.1,131,51.1z"/>
			<polygon fill="#FFFFFF" points="129.8,80.6 129.5,82.1 129.5,82.1 129.5,82.1 164.5,82.1 167.1,69.6 146.6,69.6 147.6,66 
				168.1,66 169.8,57.9 133.9,61.1 			"/>
			<polygon fill="#FFFFFF" points="214.1,41.1 138.6,41.1 138.3,41.1 135.6,53.3 211.4,53.3 			"/>
			<polygon fill="#FFFFFF" points="196.7,55.2 183.3,56.7 177.7,82.1 192.3,82.1 198.2,55.2 			"/>
		</g>
		<rect y="0" fill="none" width="255.1" height="122.9"/>
	</g>
</g>
</svg>
