<?xml version="1.0" encoding="utf-8"?>
<!-- Generator: Adobe Illustrator 16.0.3, SVG Export Plug-In . SVG Version: 6.00 Build 0)  -->
<!DOCTYPE svg PUBLIC "-//W3C//DTD SVG 1.1//EN" "http://www.w3.org/Graphics/SVG/1.1/DTD/svg11.dtd">
<svg version="1.1" id="Layer_1" xmlns="http://www.w3.org/2000/svg" xmlns:xlink="http://www.w3.org/1999/xlink" x="0px" y="0px"
	 width="173.18px" height="42.031px" viewBox="40.886 55.885 173.18 42.031" enable-background="new 40.886 55.885 173.18 42.031"
	 xml:space="preserve">
<g id="background__x28_do_not_print_x29_" display="none">
	<rect y="15.076" display="inline" fill="#3C3C3C" width="255.121" height="122.918"/>
</g>
<g id="artwork">
	<g>
		<g>
			<polygon fill="#53DA3F" points="87.239,68.348 89.927,56.131 75.021,56.131 75.021,56.131 72.333,68.348 			"/>
			<path fill="#53DA3F" d="M61.581,56.131H46.674l-5.132,22.481c-2.932,13.685,4.154,19.305,17.35,19.305
				c12.218,0,21.749-4.887,25.415-17.105L55.227,83.5L61.581,56.131z"/>
			<path fill="#FFFFFF" d="M86.262,97.184h22.727c10.997,0,17.839-4.888,19.304-11.485l0,0c0.734-3.177-0.977-6.354-3.42-8.553
				l-34.945,3.177L86.262,97.184z"/>
			<path fill="#FFFFFF" d="M130.982,66.149L130.982,66.149c0.732-2.933,0-5.132-1.223-6.598c-1.955-2.444-5.621-3.666-11.729-3.666
				H95.059l-2.688,12.219h37.632C130.493,67.615,130.982,67.127,130.982,66.149z"/>
			<polygon fill="#FFFFFF" points="129.759,95.718 129.515,97.184 129.515,97.184 129.515,97.184 164.459,97.184 167.148,84.721 
				146.621,84.721 147.598,81.055 168.125,81.055 169.835,72.992 133.914,76.169 			"/>
			<polygon fill="#FFFFFF" points="214.066,56.131 138.556,56.131 138.312,56.131 135.625,68.348 211.378,68.348 			"/>
			<polygon fill="#FFFFFF" points="196.716,70.303 183.276,71.769 177.656,97.184 192.318,97.184 198.183,70.303 			"/>
		</g>
		<rect y="15.076" fill="none" width="255.121" height="122.918"/>
	</g>
</g>
<g id="Clearspace_Guides" display="none">
	<g display="inline">
		<g>
			<path fill="none" stroke="#33A3DC" stroke-width="0.0469" stroke-dasharray="0.3195,0.3195" d="M41.054,137.994V14.588"/>
		</g>
		<g>
			<path fill="none" stroke="#33A3DC" stroke-width="0.0469" stroke-dasharray="0.3195,0.3195" d="M214.066,137.994V15.076"/>
		</g>
		<path fill="none" stroke="#33A3DC" stroke-width="0.0469" stroke-dasharray="0.3195,0.3195" d="M255.121,56.131H-0.489"/>
		<g>
			<path fill="#33A3DC" d="M-6.842,77.635h-0.489l0.733-0.978l-0.733-0.978h0.244l0.489,0.733l0.489-0.733h0.245l-0.733,0.978
				l0.733,0.978h-0.245l-0.489-0.733L-6.842,77.635z"/>
		</g>
		<g>
			<polyline fill="none" stroke="#33A3DC" stroke-width="0.0469" points="0,15.076 0,10.677 41.054,10.677 41.054,15.076 			"/>
		</g>
		<g>
			<path fill="#33A3DC" d="M20.038,9.456h-0.489l0.733-0.978l-0.489-0.978h0.244l0.489,0.733l0.489-0.733h0.244l-0.488,0.978
				l0.733,0.978h-0.489l-0.489-0.733L20.038,9.456z"/>
		</g>
		<g>
			<polyline fill="none" stroke="#33A3DC" stroke-width="0.0469" points="0,97.184 -4.398,97.184 -4.398,56.131 0,56.131 			"/>
		</g>
		<g>
			<path fill="#33A3DC" d="M-6.842,118.444h-0.489l0.733-0.978l-0.733-0.978h0.244l0.489,0.733l0.489-0.733h0.245l-0.733,0.978
				l0.733,0.978h-0.245l-0.244-0.733L-6.842,118.444z"/>
		</g>
		<g>
			<polyline fill="none" stroke="#33A3DC" stroke-width="0.0469" points="0,137.994 -4.398,137.994 -4.398,97.184 0,97.184 			"/>
		</g>
		<g>
			<g>
				<path fill="none" stroke="#33A3DC" stroke-width="0.0469" stroke-dasharray="0.3195,0.3195" d="M255.121,97.184H0"/>
			</g>
		</g>
		<g>
			<path fill="#33A3DC" d="M222.619,140.926h0.489l0.733,2.199l0.732-2.199h0.244v2.444h-0.244v-1.467v-0.244c0,0,0-0.244,0-0.488
				l-0.732,2.199h-0.244l-0.733-2.199l0,0v0.244v0.244v1.466h-0.245V140.926z"/>
			<path fill="#33A3DC" d="M225.307,140.926h0.245v0.245h-0.245V140.926z M225.307,141.659h0.245v1.711h-0.245V141.659z"/>
			<path fill="#33A3DC" d="M226.285,141.659h0.244v0.244l0.244-0.244h0.244c0.245,0,0.489,0,0.489,0.244c0,0,0,0.244,0,0.489v1.222
				h-0.244v-1.222v-0.245l-0.245-0.244h-0.244c0,0-0.244,0-0.244,0.244c0,0,0,0,0,0.245v0.244v0.978h-0.244V141.659L226.285,141.659
				z"/>
			<path fill="#33A3DC" d="M227.996,140.926h0.244v0.245h-0.244V140.926z M227.996,141.659h0.244v1.711h-0.244V141.659z"/>
			<path fill="#33A3DC" d="M228.728,141.659h0.244v0.244l0.245-0.244h0.244c0.245,0,0.245,0,0.245,0s0,0,0.244,0.244l0.244-0.244
				h0.244c0.244,0,0.488,0,0.488,0.244c0,0,0,0.244,0,0.489v1.222h-0.244v-1.467v-0.244h-0.244h-0.244c0,0-0.244,0.244-0.244,0.489
				v0.978h-0.244v-1.222v-0.245l-0.245-0.244c0,0-0.244,0-0.244,0.244c0,0-0.245,0.245-0.245,0.489v0.978h-0.244V141.659z"/>
			<path fill="#33A3DC" d="M231.906,141.659v1.222v0.244l0.244,0.245c0.244,0,0.244,0,0.488-0.245c0,0,0-0.244,0-0.488v-0.978h0.244
				v1.711h-0.244v-0.245c0,0,0,0.245-0.244,0.245c0,0-0.244,0.244-0.488,0.244c-0.245,0-0.489,0-0.489-0.244c0,0,0-0.245,0-0.489
				v-1.222H231.906z"/>
			<path fill="#33A3DC" d="M233.616,141.659h0.245v0.244l0.244-0.244h0.244c0.244,0,0.244,0,0.244,0s0,0,0.244,0.244l0.244-0.244
				h0.244c0.245,0,0.489,0,0.489,0.244c0,0,0,0.244,0,0.489v1.222h-0.244v-1.467v-0.244h-0.245h-0.244c0,0-0.244,0.244-0.244,0.489
				v0.978h-0.244v-1.222v-0.245l-0.244-0.244c0,0-0.244,0-0.244,0.244c0,0-0.244,0.245-0.244,0.489v0.978h-0.245V141.659
				L233.616,141.659z"/>
			<path fill="#33A3DC" d="M238.503,141.659c0.244,0,0.244,0.244,0.244,0.488h-0.244
				C238.503,142.147,238.503,142.147,238.503,141.659c-0.244,0.244-0.244,0-0.489,0c-0.244,0-0.244,0-0.489,0.244
				c0,0,0,0.244,0,0.489c0,0.244,0,0.244,0,0.488l0.245,0.244c0.244,0,0.244,0,0.244,0l0.245-0.244h0.244
				c0,0.244,0,0.489-0.244,0.489c-0.245,0-0.245,0.244-0.489,0.244c-0.245,0-0.489,0-0.489-0.244
				c-0.244-0.245-0.244-0.489-0.244-0.733s0-0.489,0.244-0.733s0.244-0.244,0.489-0.244
				C238.259,141.659,238.503,141.659,238.503,141.659z"/>
			<path fill="#33A3DC" d="M239.236,140.926h0.244v2.444h-0.244V140.926z"/>
			<path fill="#33A3DC" d="M240.947,141.659l0.244,0.244v0.244c0,0,0,0.245,0,0.489h-1.222c0,0.244,0,0.244,0.245,0.488
				c0,0,0.244,0.245,0.488,0.245s0.244,0,0.488-0.245v-0.244h0.244v0.244c0,0,0,0.245-0.244,0.245l-0.244,0.244h-0.244
				c-0.244,0-0.488,0-0.488-0.244c-0.245-0.245-0.245-0.489-0.245-0.733s0-0.489,0.245-0.733c0.244-0.244,0.244-0.244,0.488-0.244
				H240.947z M241.191,142.392c0-0.245,0-0.245,0-0.245c0-0.244-0.244-0.244-0.488-0.244s-0.244,0-0.244,0.244
				c0,0-0.244,0.245-0.244,0.489h0.977V142.392z"/>
			<path fill="#33A3DC" d="M242.658,142.392C242.902,142.392,242.902,142.392,242.658,142.392
				C242.902,142.147,242.902,142.147,242.658,142.392c0.244-0.245,0-0.489,0-0.489h-0.244c-0.245,0-0.245,0-0.245,0.244
				c0,0,0,0,0,0.245h-0.244c0-0.245,0-0.489,0.244-0.489c0.245,0,0.245-0.244,0.489-0.244s0.488,0,0.488,0
				c0.244,0,0.244,0.244,0.244,0.488v0.978l0,0l0,0l0,0l0,0v0.245l0,0l0,0h-0.244c0,0,0,0,0-0.245l-0.244,0.245c0,0-0.244,0-0.488,0
				c-0.245,0-0.245,0-0.489-0.245c0,0-0.245-0.244-0.245-0.488s0-0.244,0.245-0.489c0,0,0.244-0.244,0.489-0.244L242.658,142.392z
				 M242.168,143.125C242.168,143.125,242.168,143.37,242.168,143.125c0.245,0,0.489,0,0.489,0c0.244,0,0.244-0.244,0.244-0.488
				v-0.244c0,0,0,0-0.244,0c0,0,0,0-0.244,0h-0.245h-0.244C242.168,142.881,241.924,142.881,242.168,143.125
				C241.924,143.125,242.168,143.125,242.168,143.125z"/>
			<path fill="#33A3DC" d="M243.634,141.659h0.245v0.244c0,0,0-0.244,0.244-0.244l0.245-0.244l0,0l0,0v0.244l0,0l0,0
				c-0.245,0-0.245,0-0.245,0.244v0.244v0.978h-0.244v-1.466H243.634z"/>
			<path fill="#33A3DC" d="M246.079,142.881C246.079,142.881,246.079,143.125,246.079,142.881c0.244,0.244,0.244,0.489,0.489,0.489
				h0.244c0,0,0.244,0,0.244-0.245v-0.244h-0.244h-0.244c-0.245,0-0.245,0-0.245-0.244c-0.244,0-0.244-0.244-0.244-0.244
				c0-0.244,0-0.244,0.244-0.489c0.245,0,0.245-0.244,0.489-0.244s0.488,0,0.488,0.244v0.245h-0.488v-0.245c0,0-0.244,0-0.489,0
				h-0.244c0,0,0,0,0,0.245v0.244c0,0,0,0,0.244,0h0.245c0.244,0,0.488,0,0.488,0.244l0.244,0.244c0,0.244,0,0.244-0.244,0.489
				c0,0-0.244,0.244-0.488,0.244c-0.245,0-0.489,0-0.489-0.244c0,0-0.245-0.245-0.245-0.489H246.079z"/>
			<path fill="#33A3DC" d="M247.544,141.659h0.244v0.244l0.244-0.244h0.245c0.244,0,0.489,0,0.489,0.244
				c0.244,0.244,0.244,0.489,0.244,0.733c0,0.488,0,0.733-0.244,0.733c-0.245,0-0.245,0.244-0.489,0.244c-0.245,0-0.245,0-0.245,0
				s0,0-0.244-0.244v0.978h-0.244V141.659z M248.767,143.125c0,0,0.244-0.244,0.244-0.488s0-0.244,0-0.489
				c0-0.244-0.244-0.244-0.489-0.244c-0.244,0-0.244,0-0.488,0.244c0,0,0,0.245,0,0.489s0,0.244,0,0.244
				c0,0.244,0.244,0.244,0.488,0.244C248.522,143.37,248.522,143.125,248.767,143.125z"/>
			<path fill="#33A3DC" d="M250.477,142.392L250.477,142.392C250.477,142.147,250.477,142.147,250.477,142.392
				c0.245-0.245,0-0.489,0-0.489h-0.244c-0.245,0-0.245,0-0.245,0.244c0,0,0,0,0,0.245h-0.244c0-0.245,0-0.489,0.244-0.489
				c0.245,0,0.245-0.244,0.489-0.244c0.245,0,0.489,0,0.489,0c0.244,0,0.244,0.244,0.244,0.488v0.978l0,0l0,0l0,0l0,0v0.245l0,0l0,0
				h-0.244c0,0,0,0,0-0.245l-0.244,0.245c0,0-0.245,0-0.489,0c-0.245,0-0.245,0-0.489-0.245c0,0-0.244-0.244-0.244-0.488
				s0-0.244,0.244-0.489c0,0,0.244-0.244,0.489-0.244L250.477,142.392z M249.744,143.125
				C249.744,143.125,249.988,143.37,249.744,143.125c0.244,0,0.489,0,0.489,0c0.244,0,0.244-0.244,0.244-0.488v-0.244
				c0,0,0,0-0.244,0c0,0,0,0-0.245,0h-0.244H249.5C249.744,142.881,249.744,142.881,249.744,143.125L249.744,143.125z"/>
			<path fill="#33A3DC" d="M252.432,141.659c0.244,0,0.244,0.244,0.244,0.488h-0.244
				C252.432,142.147,252.432,142.147,252.432,141.659c-0.245,0.244-0.245,0-0.489,0s-0.244,0-0.488,0.244c0,0,0,0.244,0,0.489
				c0,0.244,0,0.244,0,0.488l0.244,0.244c0.244,0,0.244,0,0.244,0l0.244-0.244h0.245c0,0.244,0,0.489-0.245,0.489
				c-0.244,0-0.244,0.244-0.488,0.244s-0.488,0-0.488-0.244c-0.244-0.245-0.244-0.489-0.244-0.733s0-0.489,0.244-0.733
				s0.244-0.244,0.488-0.244C252.187,141.659,252.432,141.659,252.432,141.659z"/>
			<path fill="#33A3DC" d="M254.142,141.659l0.245,0.244v0.244c0,0,0,0.245,0,0.489h-1.222c0,0.244,0,0.244,0.244,0.488
				c0,0,0.244,0.245,0.488,0.245s0.244,0,0.489-0.245v-0.244h0.244v0.244c0,0,0,0.245-0.244,0.245l-0.245,0.244h-0.244
				c-0.244,0-0.488,0-0.488-0.244c-0.244-0.245-0.244-0.489-0.244-0.733s0-0.489,0.244-0.733s0.244-0.244,0.488-0.244H254.142z
				 M254.387,142.392c0-0.245,0-0.245,0-0.245c0-0.244-0.245-0.244-0.489-0.244s-0.244,0-0.244,0.244c0,0-0.244,0.245-0.244,0.489
				h0.978V142.392z"/>
			<path fill="#33A3DC" d="M195.25,145.08h0.244v2.199h1.223v0.245h-1.467V145.08z"/>
			<path fill="#33A3DC" d="M198.427,146.057c0.244,0.244,0.244,0.489,0.244,0.733s0,0.488-0.244,0.733
				c-0.244,0.244-0.244,0.244-0.733,0.244c-0.245,0-0.489,0-0.489-0.244c-0.244-0.245-0.244-0.489-0.244-0.733s0-0.489,0.244-0.733
				s0.244-0.244,0.733-0.244C198.183,145.813,198.183,145.813,198.427,146.057z M198.183,147.035c0-0.244,0-0.244,0-0.488
				c0-0.245,0-0.245,0-0.489s-0.245-0.244-0.489-0.244c-0.245,0-0.245,0-0.489,0.244c0,0.244-0.244,0.244-0.244,0.489
				c0,0.244,0,0.244,0.244,0.488c0,0.244,0.244,0.244,0.489,0.244C197.938,147.279,198.183,147.279,198.183,147.035z"/>
			<path fill="#33A3DC" d="M200.137,145.813C200.137,145.813,200.137,146.057,200.137,145.813L200.137,145.813h0.489v1.711
				c0,0.244,0,0.488,0,0.488c-0.244,0.244-0.244,0.244-0.733,0.244c-0.245,0-0.245,0-0.489-0.244c-0.244,0-0.244-0.244-0.244-0.488
				h0.244v0.244h0.244c0.245,0,0.489,0,0.489-0.244c0,0,0-0.245,0-0.489l-0.244,0.244h-0.245c-0.244,0-0.244,0-0.488-0.244
				s-0.244-0.244-0.244-0.733c0-0.244,0-0.488,0.244-0.732s0.244-0.244,0.488-0.244
				C199.893,145.813,199.893,145.813,200.137,145.813z M200.137,146.057l-0.244-0.244c-0.245,0-0.245,0-0.489,0.244
				c0,0,0,0.244,0,0.489c0,0.244,0,0.244,0,0.488l0.244,0.244c0.245,0,0.489,0,0.489-0.244c0,0,0-0.244,0-0.488
				C200.137,146.547,200.137,146.302,200.137,146.057z"/>
			<path fill="#33A3DC" d="M202.336,146.057c0.245,0.244,0.245,0.489,0.245,0.733s0,0.488-0.245,0.733
				c-0.244,0.244-0.244,0.244-0.733,0.244c-0.244,0-0.488,0-0.488-0.244c-0.244-0.245-0.244-0.489-0.244-0.733s0-0.489,0.244-0.733
				s0.244-0.244,0.733-0.244C201.848,145.813,202.092,145.813,202.336,146.057z M202.092,147.035c0-0.244,0-0.244,0-0.488
				c0-0.245,0-0.245,0-0.489s-0.244-0.244-0.489-0.244c-0.244,0-0.244,0-0.488,0.244c0,0.244-0.244,0.244-0.244,0.489
				c0,0.244,0,0.244,0.244,0.488c0,0.244,0.244,0.244,0.488,0.244C201.848,147.279,202.092,147.279,202.092,147.035z"/>
			<path fill="#33A3DC" d="M203.802,145.813h0.245v0.244l0.244-0.244h0.245c0.244,0,0.488,0,0.488,0.244c0,0,0,0.244,0,0.489v1.222
				h-0.244v-1.222v-0.245l-0.244-0.244h-0.245c0,0-0.244,0-0.244,0.244c0,0,0,0,0,0.245v0.244v0.978h-0.245V145.813z"/>
			<path fill="#33A3DC" d="M206.98,146.057c0.244,0.244,0.244,0.489,0.244,0.733s0,0.488-0.244,0.733
				c-0.244,0.244-0.244,0.244-0.733,0.244c-0.245,0-0.489,0-0.489-0.244c-0.244-0.245-0.244-0.489-0.244-0.733s0-0.489,0.244-0.733
				s0.244-0.244,0.733-0.244C206.736,145.813,206.98,145.813,206.98,146.057z M206.736,147.035c0-0.244,0-0.244,0-0.488
				c0-0.245,0-0.245,0-0.489s-0.245-0.244-0.489-0.244c-0.245,0-0.245,0-0.489,0.244c0,0.244-0.244,0.244-0.244,0.489
				c0,0.244,0,0.244,0.244,0.488c0,0.244,0.244,0.244,0.489,0.244C206.736,147.279,206.736,147.279,206.736,147.035z"/>
			<path fill="#33A3DC" d="M207.712,145.325h0.244v0.488h0.245v0.244h-0.245v1.222c0,0,0,0,0,0.245l0,0l0,0l0,0v0.244l0,0l0,0
				c-0.244,0-0.244,0-0.244,0v-0.244v-1.223h-0.244v-0.244h0.244V145.325z"/>
			<path fill="#33A3DC" d="M209.667,145.325h0.244v0.488h0.244v0.244h-0.244v1.222c0,0,0,0,0,0.245l0,0l0,0l0,0v0.244l0,0l0,0
				c-0.244,0-0.244,0-0.244,0v-0.244v-1.223h-0.244v-0.244h0.244V145.325z"/>
			<path fill="#33A3DC" d="M211.867,146.057c0.244,0.244,0.244,0.489,0.244,0.733s0,0.488-0.244,0.733
				c-0.244,0.244-0.244,0.244-0.732,0.244c-0.244,0-0.489,0-0.489-0.244c-0.244-0.245-0.244-0.489-0.244-0.733s0-0.489,0.244-0.733
				c0.245-0.244,0.245-0.244,0.733-0.244C211.378,145.813,211.623,145.813,211.867,146.057z M211.623,147.035
				c0-0.244,0-0.244,0-0.488c0-0.245,0-0.245,0-0.489s-0.244-0.244-0.488-0.244s-0.244,0-0.489,0.244
				c0,0.244-0.244,0.244-0.244,0.489c0,0.244,0,0.244,0.244,0.488c0,0.244,0.245,0.244,0.489,0.244S211.623,147.279,211.623,147.035
				z"/>
			<path fill="#33A3DC" d="M213.333,145.08h0.244v0.978l0.244-0.244h0.244c0.244,0,0.489,0,0.489,0.244
				c0.244,0.244,0.244,0.489,0.244,0.733s0,0.488-0.244,0.733c-0.245,0.244-0.245,0.244-0.489,0.244s-0.244,0-0.244,0
				s0,0-0.244-0.244v0.244h-0.244V145.08z M214.555,147.279c0-0.244,0-0.244,0-0.488s0-0.244,0-0.489
				c0-0.244-0.245-0.244-0.245-0.244c-0.244,0-0.244,0-0.244,0.244c0,0-0.244,0.245-0.244,0.489s0,0.244,0,0.488
				c0,0.245,0.244,0.245,0.488,0.245C214.31,147.279,214.31,147.279,214.555,147.279z"/>
			<path fill="#33A3DC" d="M216.509,145.813l0.245,0.244v0.244c0,0,0,0.245,0,0.489h-1.222c0,0.244,0,0.244,0.244,0.488
				c0,0,0.244,0.245,0.488,0.245s0.244,0,0.489-0.245v-0.244h0.244v0.244c0,0,0,0.245-0.244,0.245l-0.245,0.244h-0.244
				c-0.244,0-0.488,0-0.488-0.244c-0.244-0.245-0.244-0.489-0.244-0.733s0-0.489,0.244-0.733s0.244-0.244,0.488-0.244
				C216.265,145.813,216.265,145.813,216.509,145.813z M216.509,146.547c0-0.245,0-0.245,0-0.245c0-0.244-0.244-0.244-0.488-0.244
				s-0.244,0-0.244,0.244c0,0-0.244,0.245-0.244,0.489h0.977V146.547z"/>
			<path fill="#33A3DC" d="M218.464,145.813v1.222v0.244l0.245,0.245c0.244,0,0.244,0,0.489-0.245c0,0,0-0.244,0-0.488v-0.978h0.244
				v1.711h-0.244v-0.245c0,0,0,0.245-0.245,0.245c0,0-0.244,0.244-0.489,0.244c-0.244,0-0.488,0-0.488-0.244c0,0,0-0.245,0-0.489
				v-1.222H218.464L218.464,145.813z"/>
			<path fill="#33A3DC" d="M220.175,147.035C220.175,147.035,220.175,147.279,220.175,147.035c0.244,0.244,0.244,0.489,0.488,0.489
				h0.245c0,0,0.244,0,0.244-0.245v-0.244h-0.244h-0.245c-0.244,0-0.244,0-0.244-0.244c-0.244,0-0.244-0.244-0.244-0.244
				c0-0.245,0-0.245,0.244-0.489c0.244,0,0.244-0.244,0.489-0.244c0.244,0,0.489,0,0.489,0.244v0.244h-0.245v-0.244
				c0,0-0.244,0-0.489,0h-0.244c0,0,0,0,0,0.244v0.245c0,0,0,0,0.244,0h0.245c0.244,0,0.489,0,0.489,0.244l0.244,0.244
				c0,0.244,0,0.244-0.244,0.489c0,0-0.245,0.244-0.489,0.244c-0.245,0-0.489,0-0.489-0.244
				C220.419,147.524,220.175,147.279,220.175,147.035L220.175,147.035z"/>
			<path fill="#33A3DC" d="M222.864,145.813l0.244,0.244v0.244c0,0,0,0.245,0,0.489h-1.222c0,0.244,0,0.244,0.244,0.488
				c0,0,0.244,0.245,0.488,0.245s0.244,0,0.489-0.245v-0.244h0.244v0.244c0,0,0,0.245-0.244,0.245l-0.245,0.244h-0.244
				c-0.244,0-0.488,0-0.488-0.244c-0.244-0.245-0.244-0.489-0.244-0.733s0-0.489,0.244-0.733s0.244-0.244,0.488-0.244H222.864z
				 M223.108,146.547c0-0.245,0-0.245,0-0.245c0-0.244-0.244-0.244-0.489-0.244c-0.244,0-0.244,0-0.244,0.244
				c0,0-0.244,0.245-0.244,0.489h0.978V146.547z"/>
			<path fill="#33A3DC" d="M224.574,145.813C224.818,145.813,224.818,145.813,224.574,145.813l0.244-0.733h0.245v2.444h-0.245
				v-0.245l-0.244,0.245h-0.244c-0.244,0-0.488,0-0.488-0.245c-0.244-0.244-0.244-0.488-0.244-0.732c0-0.245,0-0.489,0.244-0.733
				s0.244-0.244,0.488-0.244C224.574,145.813,224.574,145.813,224.574,145.813z M224.085,147.279c0,0.245,0.244,0.245,0.488,0.245
				s0.244,0,0.244-0.245c0,0,0.245-0.244,0.245-0.488s0-0.489-0.245-0.489l-0.244-0.244c-0.244,0-0.244,0-0.488,0.244
				c0,0-0.244,0.245-0.244,0.489C223.841,146.791,223.841,147.035,224.085,147.279z"/>
			<path fill="#33A3DC" d="M226.773,147.035C226.773,147.035,226.773,147.279,226.773,147.035c0.244,0.244,0.244,0.489,0.489,0.489
				h0.244c0,0,0.245,0,0.245-0.245v-0.244h-0.245h-0.244c-0.245,0-0.245,0-0.245-0.244c-0.244,0-0.244-0.244-0.244-0.244
				c0-0.245,0-0.245,0.244-0.489c0.245,0,0.245-0.244,0.489-0.244c0.245,0,0.489,0,0.489,0.244v0.244h-0.244v-0.244
				c0,0-0.245,0-0.489,0h-0.245c0,0,0,0,0,0.244v0.245c0,0,0,0,0.245,0h0.244c0.245,0,0.489,0,0.489,0.244l0.244,0.244
				c0,0.244,0,0.244-0.244,0.489c0,0-0.244,0.244-0.489,0.244c-0.244,0-0.489,0-0.489-0.244
				C227.017,147.524,226.773,147.279,226.773,147.035L226.773,147.035z"/>
			<path fill="#33A3DC" d="M228.24,145.813h0.244v0.244l0.244-0.244h0.244c0.245,0,0.245,0,0.245,0s0,0,0.244,0.244l0.245-0.244
				h0.244c0.244,0,0.488,0,0.488,0.244c0,0,0,0.244,0,0.489v1.222h-0.244v-1.222v-0.245h-0.244h-0.244c0,0-0.245,0.245-0.245,0.489
				v0.978h-0.244v-1.222v-0.245l-0.245-0.244c0,0-0.244,0-0.244,0.244c0,0-0.244,0.245-0.244,0.489v0.978h-0.244V145.813z"/>
			<path fill="#33A3DC" d="M232.15,146.547L232.15,146.547C232.15,146.302,232.15,146.302,232.15,146.547
				c0.244-0.245,0-0.489,0-0.489h-0.244c-0.245,0-0.245,0-0.245,0.244c0,0,0,0,0,0.245h-0.244c0-0.245,0-0.489,0.244-0.489
				c0.245,0,0.245-0.244,0.489-0.244s0.488,0,0.488,0c0.244,0,0.244,0.244,0.244,0.488v0.978l0,0l0,0l0,0l0,0v0.245l0,0l0,0h-0.244
				c0,0,0,0,0-0.245l-0.244,0.245c0,0-0.244,0-0.488,0c-0.245,0-0.245,0-0.489-0.245c0,0-0.245-0.244-0.245-0.488
				s0-0.244,0.245-0.489c0,0,0.244-0.244,0.489-0.244L232.15,146.547z M231.417,147.279
				C231.417,147.279,231.661,147.279,231.417,147.279c0.244,0,0.489,0,0.489,0c0.244,0,0.244-0.244,0.244-0.488v-0.244
				c0,0,0,0-0.244,0c0,0,0,0-0.245,0h-0.244h-0.245C231.417,146.791,231.417,147.035,231.417,147.279L231.417,147.279z"/>
			<path fill="#33A3DC" d="M233.126,145.08h0.245v2.444h-0.245V145.08z"/>
			<path fill="#33A3DC" d="M233.861,145.08h0.244v2.444h-0.244V145.08z"/>
			<path fill="#33A3DC" d="M235.571,145.813l0.244,0.244v0.244c0,0,0,0.245,0,0.489h-1.222c0,0.244,0,0.244,0.244,0.488
				c0,0,0.244,0.245,0.488,0.245c0.245,0,0.245,0,0.489-0.245v-0.244h0.245v0.244c0,0,0,0.245-0.245,0.245l-0.244,0.244h-0.245
				c-0.244,0-0.488,0-0.488-0.244c-0.244-0.245-0.244-0.489-0.244-0.733s0-0.489,0.244-0.733s0.244-0.244,0.488-0.244H235.571z
				 M235.815,146.547c0-0.245,0-0.245,0-0.245c0-0.244-0.244-0.244-0.489-0.244c-0.244,0-0.244,0-0.244,0.244
				c0,0-0.244,0.245-0.244,0.489h0.978V146.547z"/>
			<path fill="#33A3DC" d="M236.548,145.813h0.244v0.244c0,0,0-0.244,0.244-0.244l0.244-0.244l0,0l0,0v0.244l0,0l0,0
				c-0.244,0-0.244,0-0.244,0.244v0.244v0.978h-0.244v-1.466H236.548z"/>
			<path fill="#33A3DC" d="M238.503,145.325h0.244v0.488h0.244v0.244h-0.244v1.222c0,0,0,0,0,0.245l0,0l0,0l0,0v0.244l0,0l0,0
				c-0.244,0-0.244,0-0.244,0v-0.244v-1.223h-0.244v-0.244h0.244V145.325z"/>
			<path fill="#33A3DC" d="M239.48,145.08h0.245v0.978l0.244-0.244h0.245c0.244,0,0.488,0,0.488,0.244c0,0,0,0.244,0,0.489v1.222
				h-0.244v-1.222c0-0.245,0-0.245,0-0.245l-0.244-0.244c-0.245,0-0.245,0-0.245,0.244c0,0-0.244,0.245-0.244,0.489v0.978h-0.245
				V145.08z"/>
			<path fill="#33A3DC" d="M242.414,146.547L242.414,146.547C242.658,146.302,242.658,146.302,242.414,146.547
				c0.244-0.245,0-0.489,0-0.489h-0.245c-0.244,0-0.244,0-0.244,0.244c0,0,0,0,0,0.245h-0.245c0-0.245,0-0.489,0.245-0.489
				c0.244,0,0.244-0.244,0.489-0.244c0.244,0,0.488,0,0.488,0c0.244,0,0.244,0.244,0.244,0.488v0.978l0,0l0,0l0,0l0,0v0.245l0,0l0,0
				h-0.244c0,0,0,0,0-0.245l-0.244,0.245c0,0-0.244,0-0.489,0c-0.244,0-0.244,0-0.489-0.245c0,0-0.244-0.244-0.244-0.488
				s0-0.244,0.244-0.489c0,0,0.245-0.244,0.489-0.244L242.414,146.547z M241.679,147.279
				C241.924,147.279,241.924,147.279,241.679,147.279c0.245,0,0.489,0,0.489,0c0.245,0,0.245-0.244,0.245-0.488v-0.244
				c0,0,0,0-0.245,0c0,0,0,0-0.244,0h-0.245h-0.244C241.679,146.791,241.679,147.035,241.679,147.279L241.679,147.279z"/>
			<path fill="#33A3DC" d="M243.39,145.813h0.244v0.244l0.245-0.244h0.244c0.245,0,0.489,0,0.489,0.244c0,0,0,0.244,0,0.489v1.222
				h-0.244v-1.222v-0.245l-0.245-0.244h-0.244c0,0-0.245,0-0.245,0.244c0,0,0,0,0,0.245v0.244v0.978h-0.244V145.813z"/>
			<path fill="#33A3DC" d="M246.323,145.813L246.323,145.813c0.245-0.244,0.489-0.244,0.489-0.244l0.244-0.244h0.244v2.443h-0.488
				v-1.711h-0.489V145.813z"/>
			<path fill="#33A3DC" d="M249.5,145.569c0,0.244,0.244,0.488,0.244,0.732c0,0.245,0,0.489-0.244,0.733s-0.488,0.489-0.732,0.489
				c-0.245,0-0.489-0.245-0.734-0.489c0-0.244-0.244-0.488-0.244-0.733c0-0.244,0-0.488,0-0.732
				c0.244-0.244,0.489-0.489,0.733-0.489C249.011,145.08,249.255,145.325,249.5,145.569z M249.255,147.035
				c0-0.244,0.244-0.488,0.244-0.733c0-0.244,0-0.488,0-0.732s-0.244-0.244-0.488-0.244s-0.244,0-0.489,0.244
				c0,0.244-0.244,0.488-0.244,0.732c0,0.245,0,0.489,0,0.489c0,0.244,0.244,0.244,0.489,0.244
				C249.011,147.279,249.011,147.279,249.255,147.035z"/>
			<path fill="#33A3DC" d="M251.455,145.569c0,0.244,0.244,0.488,0.244,0.732c0,0.245,0,0.489-0.244,0.733s-0.488,0.489-0.732,0.489
				c-0.245,0-0.489-0.245-0.734-0.489c0-0.244-0.244-0.488-0.244-0.733c0-0.244,0-0.488,0-0.732
				c0.244-0.244,0.489-0.489,0.733-0.489C250.966,145.08,251.21,145.325,251.455,145.569z M251.21,147.035
				c0-0.244,0.244-0.488,0.244-0.733c0-0.244,0-0.488,0-0.732s-0.244-0.244-0.488-0.244s-0.244,0-0.489,0.244
				c0,0.244-0.244,0.488-0.244,0.732c0,0.245,0,0.489,0,0.489c0,0.244,0.244,0.244,0.489,0.244
				C250.966,147.279,250.966,147.279,251.21,147.035z"/>
			<path fill="#33A3DC" d="M252.921,145.325c0,0,0.244,0.244,0.244,0.488s0,0.244-0.244,0.488c0,0-0.245,0.245-0.489,0.245
				c-0.245,0-0.245,0-0.489-0.245c0,0-0.244-0.244-0.244-0.488s0-0.244,0.244-0.488c0,0,0.244-0.245,0.489-0.245
				C252.676,145.325,252.676,145.325,252.921,145.325z M252.676,146.057v-0.244v-0.244h-0.244h-0.245v0.244v0.244h0.245H252.676z
				 M253.898,145.08L253.898,145.08l-1.222,2.444h-0.244L253.898,145.08z M254.387,146.547c0,0,0.244,0.244,0.244,0.488
				s0,0.244-0.244,0.489c0,0-0.245,0.244-0.489,0.244s-0.244,0-0.488-0.244c0,0-0.244-0.245-0.244-0.489s0-0.244,0.244-0.488
				c0,0,0.244-0.245,0.488-0.245S254.387,146.547,254.387,146.547z M254.387,147.279v-0.244v-0.244h-0.245h-0.244v0.244v0.244
				C253.898,147.279,253.898,147.279,254.387,147.279C254.142,147.279,254.142,147.279,254.387,147.279z"/>
			<path fill="#33A3DC" d="M197.449,149.234h0.489v2.199h1.222v0.245h-1.466v-2.444H197.449z"/>
			<path fill="#33A3DC" d="M200.626,149.968c0.244,0.244,0.244,0.488,0.244,0.733c0,0.244,0,0.488-0.244,0.732
				c-0.244,0.245-0.244,0.245-0.733,0.245c-0.245,0-0.489,0-0.489-0.245c-0.244-0.244-0.244-0.488-0.244-0.732
				c0-0.245,0-0.489,0.244-0.733s0.244-0.244,0.733-0.244C200.382,149.723,200.626,149.968,200.626,149.968z M200.626,151.189
				c0-0.244,0-0.244,0-0.488c0-0.245,0-0.245,0-0.489s-0.244-0.244-0.489-0.244c-0.244,0-0.244,0-0.489,0.244
				c0,0.244-0.244,0.244-0.244,0.489c0,0.244,0,0.244,0.244,0.488c0,0.244,0.245,0.244,0.489,0.244
				C200.382,151.433,200.382,151.433,200.626,151.189z"/>
			<path fill="#33A3DC" d="M202.336,149.968L202.336,149.968L202.336,149.968h0.489v1.711c0,0.244,0,0.488,0,0.488
				c-0.244,0.244-0.244,0.244-0.733,0.244c-0.244,0-0.244,0-0.489-0.244c-0.244,0-0.244-0.244-0.244-0.488h0.244v0.244h0.245
				c0.244,0,0.488,0,0.488-0.244c0,0,0-0.245,0-0.489l-0.244,0.244h-0.244c-0.245,0-0.245,0-0.489-0.244s-0.244-0.244-0.244-0.733
				c0-0.244,0-0.488,0.244-0.732c0.244-0.245,0.244-0.245,0.489-0.245C202.092,149.968,202.336,149.968,202.336,149.968z
				 M202.336,150.212l-0.244-0.244c-0.244,0-0.244,0-0.489,0.244c0,0,0,0.244,0,0.489c0,0.244,0,0.244,0,0.488l0.245,0.244
				c0.244,0,0.488,0,0.488-0.244c0,0,0-0.244,0-0.488C202.582,150.456,202.582,150.456,202.336,150.212z"/>
			<path fill="#33A3DC" d="M204.537,149.968c0.244,0.244,0.244,0.488,0.244,0.733c0,0.244,0,0.488-0.244,0.732
				c-0.245,0.245-0.245,0.245-0.734,0.245c-0.244,0-0.488,0-0.488-0.245c-0.244-0.244-0.244-0.488-0.244-0.732
				c0-0.245,0-0.489,0.244-0.733s0.244-0.244,0.733-0.244C204.292,149.723,204.292,149.968,204.537,149.968z M204.292,151.189
				c0-0.244,0-0.244,0-0.488c0-0.245,0-0.245,0-0.489s-0.244-0.244-0.489-0.244c-0.244,0-0.244,0-0.488,0.244
				c0,0.244-0.244,0.244-0.244,0.489c0,0.244,0,0.244,0.244,0.488c0,0.244,0.244,0.244,0.488,0.244
				C204.047,151.433,204.292,151.433,204.292,151.189z"/>
			<path fill="#33A3DC" d="M206.001,149.968h0.245v0.244l0.244-0.244h0.245c0.244,0,0.488,0,0.488,0.244c0,0,0,0.244,0,0.489v1.222
				h-0.244v-1.222v-0.245l-0.244-0.244h-0.245c0,0-0.244,0-0.244,0.244c0,0,0,0,0,0.245v0.244v0.978h-0.245V149.968z"/>
			<path fill="#33A3DC" d="M209.423,149.968c0.244,0.244,0.244,0.488,0.244,0.733c0,0.244,0,0.488-0.244,0.732
				c-0.244,0.245-0.244,0.245-0.732,0.245c-0.245,0-0.489,0-0.489-0.245c-0.245-0.244-0.245-0.488-0.245-0.732
				c0-0.245,0-0.489,0.245-0.733c0.244-0.244,0.244-0.244,0.733-0.244C208.935,149.723,209.179,149.968,209.423,149.968z
				 M209.179,151.189c0-0.244,0-0.244,0-0.488c0-0.245,0-0.245,0-0.489s-0.244-0.244-0.488-0.244c-0.245,0-0.245,0-0.489,0.244
				c0,0.244-0.245,0.244-0.245,0.489c0,0.244,0,0.244,0.245,0.488c0,0.244,0.244,0.244,0.489,0.244
				C208.935,151.433,209.179,151.433,209.179,151.189z"/>
			<path fill="#33A3DC" d="M209.912,149.478h0.244v0.489h0.245v0.244h-0.245v1.222c0,0,0,0,0,0.245l0,0l0,0l0,0v0.244l0,0l0,0
				c-0.244,0-0.244,0-0.244,0v-0.244v-1.223h-0.244v-0.244h0.244V149.478z"/>
			<path fill="#33A3DC" d="M211.867,149.478h0.244v0.489h0.489v0.244h-0.244v1.222c0,0,0,0,0,0.245l0,0l0,0l0,0v0.244l0,0l0,0
				c-0.245,0-0.245,0-0.245,0v-0.244v-1.223h-0.244v-0.244h0.244v-0.733H211.867z"/>
			<path fill="#33A3DC" d="M214.066,149.968c0.244,0.244,0.244,0.488,0.244,0.733c0,0.244,0,0.488-0.244,0.732
				c-0.244,0.245-0.244,0.245-0.732,0.245c-0.244,0-0.489,0-0.489-0.245c-0.244-0.244-0.244-0.488-0.244-0.732
				c0-0.245,0-0.489,0.244-0.733c0.245-0.244,0.245-0.244,0.733-0.244C213.822,149.723,213.822,149.968,214.066,149.968z
				 M213.822,151.189c0-0.244,0-0.244,0-0.488c0-0.245,0-0.245,0-0.489s-0.244-0.244-0.488-0.244s-0.244,0-0.488,0.244
				c0,0.244-0.245,0.244-0.245,0.489c0,0.244,0,0.244,0.245,0.488c0,0.244,0.244,0.244,0.488,0.244S213.822,151.433,213.822,151.189
				z"/>
			<path fill="#33A3DC" d="M215.533,149.234h0.244v0.978l0.244-0.244h0.244c0.244,0,0.489,0,0.489,0.244
				c0.244,0.244,0.244,0.489,0.244,0.733s0,0.488-0.244,0.733c-0.245,0.244-0.245,0.244-0.489,0.244s-0.244,0-0.244,0
				s0,0-0.244-0.244v0.244h-0.244V149.234z M216.754,151.189c0-0.244,0-0.244,0-0.488c0-0.245,0-0.245,0-0.489
				s-0.245-0.244-0.245-0.244c-0.244,0-0.244,0-0.244,0.244c0,0-0.244,0.244-0.244,0.489c0,0.244,0,0.244,0,0.488
				s0.244,0.244,0.488,0.244C216.509,151.433,216.754,151.433,216.754,151.189z"/>
			<path fill="#33A3DC" d="M218.709,149.968l0.244,0.244v0.244c0,0,0,0.245,0,0.489h-1.222c0,0.244,0,0.244,0.244,0.488
				c0,0,0.244,0.245,0.488,0.245c0.245,0,0.245,0,0.489-0.245v-0.244h0.245v0.244c0,0,0,0.245-0.245,0.245l-0.244,0.244h-0.245
				c-0.244,0-0.488,0-0.488-0.244c-0.488-0.245-0.488-0.489-0.488-0.733s0-0.489,0.244-0.733s0.244-0.244,0.488-0.244
				S218.464,149.968,218.709,149.968z M218.709,150.701c0-0.245,0-0.245,0-0.245c0-0.244-0.245-0.244-0.489-0.244
				s-0.244,0-0.244,0.244c0,0-0.244,0.245-0.244,0.489h0.978V150.701z"/>
			<path fill="#33A3DC" d="M220.664,149.968v1.222v0.244l0.245,0.245c0.244,0,0.244,0,0.489-0.245c0,0,0-0.244,0-0.488v-0.978h0.244
				v1.711h-0.244v-0.245c0,0,0,0.245-0.245,0.245c0,0-0.244,0.244-0.489,0.244c-0.244,0-0.488,0-0.488-0.244c0,0,0-0.245,0-0.489
				v-1.222H220.664z"/>
			<path fill="#33A3DC" d="M222.619,151.189L222.619,151.189c0.245,0.244,0.245,0.489,0.489,0.489h0.244c0,0,0.245,0,0.245-0.245
				v-0.244h-0.245h-0.244c-0.244,0-0.244,0-0.244-0.244c-0.245,0-0.245-0.244-0.245-0.244c0-0.245,0-0.245,0.245-0.489
				c0.244,0,0.244-0.244,0.488-0.244c0.245,0,0.489,0,0.489,0.244v0.244h-0.244v-0.244c0,0-0.245,0-0.489,0h-0.244c0,0,0,0,0,0.244
				v0.245c0,0,0,0,0.244,0h0.244c0.245,0,0.489,0,0.489,0.244l0.244,0.244c0,0.244,0,0.244-0.244,0.489c0,0-0.244,0.244-0.489,0.244
				c-0.244,0-0.488,0-0.488-0.244C222.864,151.678,222.619,151.433,222.619,151.189L222.619,151.189z"/>
			<path fill="#33A3DC" d="M225.063,149.968l0.244,0.244v0.244c0,0,0,0.245,0,0.489h-1.222c0,0.244,0,0.244,0.244,0.488
				c0,0,0.244,0.245,0.488,0.245c0.245,0,0.245,0,0.489-0.245v-0.244h0.245v0.244c0,0,0,0.245-0.245,0.245l-0.244,0.244h-0.245
				c-0.244,0-0.488,0-0.488-0.244c-0.244-0.245-0.244-0.489-0.244-0.733s0-0.489,0.244-0.733s0.244-0.244,0.488-0.244H225.063z
				 M225.307,150.701c0-0.245,0-0.245,0-0.245c0-0.244-0.244-0.244-0.489-0.244c-0.244,0-0.244,0-0.244,0.244
				c0,0-0.244,0.245-0.244,0.489h0.978V150.701z"/>
			<path fill="#33A3DC" d="M227.017,149.968L227.017,149.968l0.245-0.733h0.244v2.444h-0.244v-0.245l-0.245,0.245h-0.244
				c-0.244,0-0.488,0-0.488-0.245c-0.244-0.244-0.244-0.488-0.244-0.732c0-0.245,0-0.489,0.244-0.733s0.244-0.244,0.488-0.244
				C226.773,149.968,226.773,149.968,227.017,149.968z M226.285,151.189c0,0.244,0.244,0.244,0.488,0.244s0.244,0,0.244-0.244
				c0,0,0.245-0.244,0.245-0.488c0-0.245,0-0.489-0.245-0.489l-0.244-0.244c-0.244,0-0.244,0-0.488,0.244
				c0,0-0.244,0.244-0.244,0.489C226.041,150.945,226.285,151.189,226.285,151.189z"/>
			<path fill="#33A3DC" d="M228.728,149.234h0.244v2.444h-0.244V149.234z"/>
			<path fill="#33A3DC" d="M230.439,150.701C230.683,150.701,230.683,150.456,230.439,150.701
				C230.683,150.456,230.683,150.456,230.439,150.701c0.244-0.245,0-0.489,0-0.489h-0.244c-0.244,0-0.244,0-0.244,0.244
				c0,0,0,0,0,0.245h-0.244c0-0.245,0-0.489,0.244-0.489s0.244-0.244,0.488-0.244s0.488,0,0.488,0c0.244,0,0.244,0.244,0.244,0.488
				v0.978l0,0l0,0l0,0l0,0v0.245l0,0l0,0h-0.244c0,0,0,0,0-0.245l-0.244,0.245c0,0-0.244,0-0.488,0s-0.244,0-0.488-0.245
				c0,0-0.245-0.244-0.245-0.488s0-0.244,0.245-0.489c0,0,0.244-0.244,0.488-0.244L230.439,150.701z M229.951,151.433
				L229.951,151.433c0.244,0,0.488,0,0.488,0c0.244,0,0.244-0.244,0.244-0.488v-0.244c0,0,0,0-0.244,0c0,0,0,0-0.244,0h-0.244
				h-0.244C229.951,150.945,229.707,151.189,229.951,151.433C229.707,151.189,229.951,151.433,229.951,151.433z"/>
			<path fill="#33A3DC" d="M231.417,149.968h0.244v0.244c0,0,0-0.244,0.245-0.244l0.244-0.244l0,0l0,0v0.244l0,0l0,0
				c-0.244,0-0.244,0-0.244,0.244v0.244v0.978h-0.245v-1.466H231.417z"/>
			<path fill="#33A3DC" d="M233.616,149.968C233.616,149.968,233.861,149.968,233.616,149.968L233.616,149.968h0.489v1.711
				c0,0.244,0,0.488,0,0.488c-0.244,0.244-0.244,0.244-0.733,0.244c-0.245,0-0.245,0-0.489-0.244c-0.244,0-0.244-0.244-0.244-0.488
				h0.244v0.244h0.244c0.245,0,0.489,0,0.489-0.244c0,0,0-0.245,0-0.489l-0.244,0.244h-0.245c-0.244,0-0.244,0-0.488-0.244
				s-0.244-0.244-0.244-0.733c0-0.244,0-0.488,0.244-0.732c0.244-0.245,0.244-0.245,0.488-0.245
				C233.372,149.968,233.616,149.968,233.616,149.968z M233.616,150.212l-0.244-0.244c-0.245,0-0.245,0-0.489,0.244
				c0,0,0,0.244,0,0.489c0,0.244,0,0.244,0,0.488l0.244,0.244c0.245,0,0.489,0,0.489-0.244c0,0,0-0.244,0-0.488
				C233.861,150.456,233.861,150.456,233.616,150.212z"/>
			<path fill="#33A3DC" d="M235.571,149.968l0.244,0.244v0.244c0,0,0,0.245,0,0.489h-1.222c0,0.244,0,0.244,0.244,0.488
				c0,0,0.244,0.245,0.488,0.245c0.245,0,0.245,0,0.489-0.245v-0.244h0.245v0.244c0,0,0,0.245-0.245,0.245l-0.244,0.244h-0.245
				c-0.244,0-0.488,0-0.488-0.244c-0.244-0.245-0.244-0.489-0.244-0.733s0-0.489,0.244-0.733s0.244-0.244,0.488-0.244H235.571z
				 M235.815,150.701c0-0.245,0-0.245,0-0.245c0-0.244-0.244-0.244-0.489-0.244c-0.244,0-0.244,0-0.244,0.244
				c0,0.245-0.244,0.245-0.244,0.489h0.978V150.701z"/>
			<path fill="#33A3DC" d="M236.548,149.968h0.244v0.244c0,0,0-0.244,0.244-0.244l0.244-0.244l0,0l0,0v0.244l0,0l0,0
				c-0.244,0-0.244,0-0.244,0.244s0,0.244,0,0.244v0.978h-0.244v-1.466H236.548z"/>
			<path fill="#33A3DC" d="M238.503,149.478h0.244v0.489h0.244v0.244h-0.244v1.222c0,0,0,0,0,0.245l0,0l0,0l0,0v0.244l0,0l0,0
				c-0.244,0-0.244,0-0.244,0v-0.244v-1.223h-0.244v-0.244h0.244V149.478z"/>
			<path fill="#33A3DC" d="M239.48,149.234h0.245v0.978l0.244-0.244h0.245c0.244,0,0.488,0,0.488,0.244c0,0,0,0.244,0,0.489v1.222
				h-0.244v-1.222c0-0.245,0-0.245,0-0.245l-0.244-0.244c-0.245,0-0.245,0-0.245,0.244c0,0-0.244,0.245-0.244,0.489v0.978h-0.245
				V149.234z"/>
			<path fill="#33A3DC" d="M242.414,150.701C242.414,150.701,242.414,150.456,242.414,150.701
				C242.658,150.456,242.658,150.456,242.414,150.701c0.244-0.245,0-0.489,0-0.489h-0.245c-0.244,0-0.244,0-0.244,0.244
				c0,0,0,0,0,0.245h-0.245c0-0.245,0-0.489,0.245-0.489c0.244,0,0.244-0.244,0.489-0.244c0.244,0,0.488,0,0.488,0
				c0.244,0,0.244,0.244,0.244,0.488v0.978l0,0l0,0l0,0l0,0v0.245l0,0l0,0h-0.244c0,0,0,0,0-0.245l-0.244,0.245c0,0-0.244,0-0.489,0
				c-0.244,0-0.244,0-0.489-0.245c0,0-0.244-0.244-0.244-0.488s0-0.244,0.244-0.489c0,0,0.245-0.244,0.489-0.244L242.414,150.701z
				 M241.679,151.433C241.924,151.433,241.924,151.433,241.679,151.433c0.245,0,0.489,0,0.489,0c0.245,0,0.245-0.244,0.245-0.488
				v-0.244c0,0,0,0-0.245,0c0,0,0,0-0.244,0h-0.245h-0.244C241.679,150.945,241.679,151.189,241.679,151.433
				C241.679,151.189,241.679,151.433,241.679,151.433z"/>
			<path fill="#33A3DC" d="M243.39,149.968h0.244v0.244l0.245-0.244h0.244c0.245,0,0.489,0,0.489,0.244c0,0,0,0.244,0,0.489v1.222
				h-0.244v-1.222v-0.245l-0.245-0.244h-0.244c0,0-0.245,0-0.245,0.244c0,0,0,0,0,0.245v0.244v0.978h-0.244V149.968z"/>
			<path fill="#33A3DC" d="M246.323,149.968L246.323,149.968c0.245-0.244,0.489-0.244,0.489-0.244l0.244-0.245h0.244v2.444h-0.488
				v-1.711h-0.489V149.968z"/>
			<path fill="#33A3DC" d="M248.278,151.189c0,0.244,0,0.244,0.244,0.244h0.245c0.244,0,0.244,0,0.488-0.244
				c0,0,0.244-0.244,0.244-0.488c0-0.245,0-0.245-0.244-0.489c0,0-0.244-0.244-0.488-0.244h-0.245c0,0-0.244,0-0.244,0.244h-0.245
				l0.245-1.222h1.222v0.244h-0.978v0.733c0,0,0,0,0.245,0h0.244c0.244,0,0.488,0,0.488,0.244c0.244,0.244,0.244,0.244,0.244,0.489
				c0,0.244,0,0.488-0.244,0.488c-0.244,0.244-0.244,0.244-0.732,0.244C248.522,151.433,248.278,151.433,248.278,151.189
				s-0.245-0.244-0.245-0.488h0.245V151.189z"/>
			<path fill="#33A3DC" d="M251.455,149.478c0,0.245,0.244,0.245,0.244,0.489h-0.244C251.21,149.723,251.21,149.723,251.455,149.478
				c-0.244,0-0.488,0-0.488,0c-0.244,0-0.244,0-0.489,0.245c0,0.244-0.244,0.488-0.244,0.732l0.244-0.244h0.245
				c0.244,0,0.488,0,0.488,0.244c0.244,0.245,0.244,0.245,0.244,0.489s0,0.488-0.244,0.488c-0.244,0.245-0.244,0.245-0.488,0.245
				c-0.245,0-0.489,0-0.489-0.245c-0.245-0.244-0.245-0.488-0.245-0.978c0-0.244,0-0.488,0-0.732
				c0.245-0.489,0.489-0.489,0.734-0.489C250.966,149.234,251.21,149.234,251.455,149.478z M251.21,151.433c0,0,0-0.244,0-0.488
				v-0.244c0,0-0.244-0.245-0.488-0.245c-0.245,0-0.245,0-0.245,0.245c0,0-0.244,0.244-0.244,0.488s0,0.244,0.244,0.489
				c0,0,0.245,0.244,0.489,0.244C250.966,151.433,250.966,151.433,251.21,151.433z"/>
			<path fill="#33A3DC" d="M252.921,149.478c0,0,0.244,0.245,0.244,0.489s0,0.244-0.244,0.488c0,0-0.245,0.245-0.489,0.245
				c-0.245,0-0.245,0-0.489-0.245c0,0-0.244-0.244-0.244-0.488s0-0.244,0.244-0.489c0,0,0.244-0.244,0.489-0.244
				C252.676,149.478,252.676,149.478,252.921,149.478z M252.676,150.212v-0.244v-0.244h-0.244h-0.245v0.244v0.244h0.245H252.676z
				 M253.898,149.234L253.898,149.234l-1.222,2.444h-0.244L253.898,149.234z M254.387,150.701c0,0,0.244,0.244,0.244,0.488
				s0,0.244-0.244,0.489c0,0-0.245,0.244-0.489,0.244s-0.244,0-0.488-0.244c0,0-0.244-0.245-0.244-0.489s0-0.244,0.244-0.488
				c0,0,0.244-0.245,0.488-0.245S254.387,150.701,254.387,150.701z M254.387,151.433v-0.244v-0.244h-0.245h-0.244v0.244v0.244
				C253.898,151.433,253.898,151.433,254.387,151.433C254.142,151.433,254.142,151.433,254.387,151.433z"/>
		</g>
	</g>
</g>
</svg>
